<svg width="168" height="173" viewBox="0 0 168 173" fill="none" xmlns="http://www.w3.org/2000/svg">
<g filter="url(#filter0_d_50_299)">
<mask id="path-1-inside-1_50_299" fill="white">
<path d="M162.334 142.574C165.317 150.333 161.455 159.139 153.386 161.132C135.271 165.605 116.293 165.826 97.9591 161.686C74.7117 156.437 53.543 144.412 37.1299 127.131C20.7168 109.851 9.79644 88.0921 5.74979 64.6055C2.55836 46.0827 3.75529 27.1415 9.15393 9.28063C11.5588 1.32437 20.5524 -2.07896 28.1471 1.29832C35.7418 4.67558 39.0256 13.5601 36.9536 21.6094C33.7815 33.9324 33.2325 46.8436 35.4123 59.4948C38.4481 77.1147 46.6407 93.4386 58.954 106.402C71.2673 119.366 87.1483 128.388 104.589 132.326C117.111 135.153 130.033 135.269 142.503 132.735C150.648 131.08 159.352 134.816 162.334 142.574Z"/>
</mask>
<path d="M162.334 142.574C165.317 150.333 161.455 159.139 153.386 161.132C135.271 165.605 116.293 165.826 97.9591 161.686C74.7117 156.437 53.543 144.412 37.1299 127.131C20.7168 109.851 9.79644 88.0921 5.74979 64.6055C2.55836 46.0827 3.75529 27.1415 9.15393 9.28063C11.5588 1.32437 20.5524 -2.07896 28.1471 1.29832C35.7418 4.67558 39.0256 13.5601 36.9536 21.6094C33.7815 33.9324 33.2325 46.8436 35.4123 59.4948C38.4481 77.1147 46.6407 93.4386 58.954 106.402C71.2673 119.366 87.1483 128.388 104.589 132.326C117.111 135.153 130.033 135.269 142.503 132.735C150.648 131.08 159.352 134.816 162.334 142.574Z" fill="#329672"/>
<path d="M162.334 142.574C165.317 150.333 161.455 159.139 153.386 161.132C135.271 165.605 116.293 165.826 97.9591 161.686C74.7117 156.437 53.543 144.412 37.1299 127.131C20.7168 109.851 9.79644 88.0921 5.74979 64.6055C2.55836 46.0827 3.75529 27.1415 9.15393 9.28063C11.5588 1.32437 20.5524 -2.07896 28.1471 1.29832C35.7418 4.67558 39.0256 13.5601 36.9536 21.6094C33.7815 33.9324 33.2325 46.8436 35.4123 59.4948C38.4481 77.1147 46.6407 93.4386 58.954 106.402C71.2673 119.366 87.1483 128.388 104.589 132.326C117.111 135.153 130.033 135.269 142.503 132.735C150.648 131.08 159.352 134.816 162.334 142.574Z" stroke="#24936A" stroke-width="2" mask="url(#path-1-inside-1_50_299)"/>
</g>
<defs>
<filter id="filter0_d_50_299" x="0" y="0" width="167.338" height="172.645" filterUnits="userSpaceOnUse" color-interpolation-filters="sRGB">
<feFlood flood-opacity="0" result="BackgroundImageFix"/>
<feColorMatrix in="SourceAlpha" type="matrix" values="0 0 0 0 0 0 0 0 0 0 0 0 0 0 0 0 0 0 127 0" result="hardAlpha"/>
<feOffset dy="4"/>
<feGaussianBlur stdDeviation="2"/>
<feComposite in2="hardAlpha" operator="out"/>
<feColorMatrix type="matrix" values="0 0 0 0 0 0 0 0 0 0 0 0 0 0 0 0 0 0 0.25 0"/>
<feBlend mode="normal" in2="BackgroundImageFix" result="effect1_dropShadow_50_299"/>
<feBlend mode="normal" in="SourceGraphic" in2="effect1_dropShadow_50_299" result="shape"/>
</filter>
</defs>
</svg>
